<?xml version="1.0" encoding="utf-8"?>
<!-- Generator: Adobe Illustrator 25.4.1, SVG Export Plug-In . SVG Version: 6.00 Build 0)  -->
<svg version="1.1" id="Слой_1" xmlns="http://www.w3.org/2000/svg" xmlns:xlink="http://www.w3.org/1999/xlink" x="0px" y="0px"
	 viewBox="0 0 158.6 163.1" style="enable-background:new 0 0 158.6 163.1;" xml:space="preserve">
<style type="text/css">
	.st0{fill:#1688AE;}
	.st1{fill:#1688AE;stroke:#1688AE;stroke-width:2;stroke-miterlimit:10;}
</style>
<path class="st0" d="M150,84.8c-0.9-1.4-2.8-2.1-5.6-2.1H144c-3.7,0.1-16.1,0-16.1,0c-6.3,0-6,4.6-6.3,6.3c-0.1,0.4-0.4,0.7-0.9,0.7
	H57.3c0,0,0-7.2,0-10.1l0.1-0.1c1.5-0.6,2.5-2,2.5-3.7c0-1.3,0-2.6,0-4c0-2.6-2.1-4.7-4.7-4.8h-1l11.8-12.8v9.8h-4.1V70H66v0.4
	c0,0.9,0,1.8,0,2.7c-0.2,1.6,0.9,3,2.5,3.2c0.1,0,0.1,0,0.2,0l0.4,0.1c1,0.3,1.1,0.9,1.1,1.3c0,0.6-0.4,1.1-1,1.2
	c-0.4,0.1-0.9,0.1-1.4-0.8c-0.1-0.2-0.1-0.3-0.2-0.5l-0.4-0.8h-5.5v0.8c0,4,3.1,7.2,7.1,7.2c0,0,0,0,0,0c3,0,5.6-1.9,6.7-4.6
	c1.4-3.2,0.1-6.9-2.9-8.7c-0.8-0.4-0.9-0.8-0.9-1.7H76v-5.8h-4.2c0-1.1,0-2.2,0-3.2c0-2.7,0.1-5.6-0.1-8.4c-0.3-3.8,0.7-6.4,3.2-8.6
	c0.7-0.5,1.2-1.3,1.3-2.2c0-1-0.5-2-1.3-2.6c-1.9-1.9-3.7-3.8-5.6-5.6c-1.7-1.7-3.1-1.7-4.9-0.1C61.3,35.9,53,45,48.2,50.2
	c-1.1-0.8-2.4-1.2-3.8-1.2h-5.2V44c0-1.2,0-2.5,0-3.7c-0.1-2.1-1.3-3.5-3.2-3.5s-3,1.4-3.1,3.5c0,0.4,0,0.7,0,1.1V49h-0.8
	c-1.2,0-2.4,0-3.5,0c-3.4-0.1-5.2,0-6.4,1.2S20.9,53,21,56.5c0.1,2.3,0,4.7,0,7v3.7h-0.8c-1.3,0-2.5,0-3.7,0
	c-2.8,0.1-4.3,1.5-4.3,4.2c0,1.5,0,3,0.1,4.7v0.2c0,1.5,1,2.8,2.4,3.2l0.2,0.1c0,0.1,0,0.2,0,0.3c0,1.9,0,3.9,0,5.8v4.2h-2.3
	c-1.5-0.1-3,0.6-3.9,1.7c-0.9,1.3-1.2,2.9-0.8,4.4c1.6,7,5,13.5,9.8,18.9c1,0.8,1.2,2.3,0.5,3.4c-0.7,1.3-1.3,2.6-2,4l-0.1,0.3
	l-0.7,1.5c-0.8,1.6-0.7,3.5,0.4,5c1.2,1.5,3,2.3,4.9,2.1h10.6c31.6,0,63.2,0,94.8,0c2.6,0,4.9-1.5,6-3.9c2.6-5.7,5.3-11.4,7.9-16.9
	l1.7-3.6c2-4.2,4-8.4,6-12.7l2.5-5.2C150,89,151.2,86.7,150,84.8z M66.5,39.4l2.4,2.4L51,61.6V56L66.5,39.4z M27.3,55.2h17.5v11.8
	H27.3V55.2z M18.8,72.1h34.2c0.7-0.1,1.4,0.5,1.4,1.2c0.1,0.7-0.5,1.4-1.2,1.4c-0.1,0-0.2,0-0.2,0H18.8c-0.7,0.1-1.4-0.5-1.4-1.2
	c-0.1-0.7,0.5-1.4,1.2-1.4C18.7,72.1,18.8,72.1,18.8,72.1z M50.9,79.8v10H21.2v-10c0.2,0,0.4,0,0.6,0h10.7H50.9z M128.9,119.1
	c-1,2-1.8,4-2.7,5.8H126c-0.1,0-0.2,0-0.3,0H21.8l2.8-6H129L128.9,119.1z M139.7,96c-2.5,5.3-5,10.7-7.5,16.1
	c-0.2,0.5-0.3,0.6-1,0.6c-3.4,0-6.8,0-10.2,0H96.2c-21,0-45.9,0-70.8,0c-1,0.1-2-0.4-2.6-1.2c-3-3.5-5.5-7.5-7.3-11.8
	c-0.4-1.1-0.8-2.2-1.1-3.3L14.2,96H119c1.3,0.1,2.6-0.1,3.8-0.4c2.5-0.7,4.3-2.9,4.5-5.4c0.2-1.3,0.2-1.3,1.4-1.3h14.4L139.7,96z"/>
</svg>
