<?xml version="1.0" encoding="utf-8"?>
<!-- Generator: Adobe Illustrator 25.4.1, SVG Export Plug-In . SVG Version: 6.00 Build 0)  -->
<svg version="1.1" id="Слой_1" xmlns="http://www.w3.org/2000/svg" xmlns:xlink="http://www.w3.org/1999/xlink" x="0px" y="0px"
	 viewBox="0 0 158.6 163.1" style="enable-background:new 0 0 158.6 163.1;" xml:space="preserve">
<style type="text/css">
	.st0{fill:#1688AE;}
	.st1{fill:#1688AE;stroke:#1688AE;stroke-width:2;stroke-miterlimit:10;}
</style>
<g>
	<path class="st0" d="M39.4,84.5c1.8,0,3.5,0,5.3,0c1.8,0,3.6,0,5.4,0c2,0,3.3-1.2,3.3-2.9c0-1.7-1.2-2.9-3.2-2.9
		c-3.6,0-7.3,0-10.9,0c-2,0-3.3,1.1-3.3,2.9C36,83.4,37.3,84.5,39.4,84.5z"/>
	<path class="st0" d="M24.1,84.5c0.5,0.1,1.1,0,1.6,0c0,0,0,0,0,0c0.4,0,0.8,0,1.3,0c1.9-0.1,3.2-1.3,3.2-3
		c-0.1-1.6-1.3-2.7-3.2-2.8c-1,0-1.9-0.1-2.9,0c-1.6,0.2-2.5,1.2-2.6,2.8C21.4,83,22.5,84.3,24.1,84.5z"/>
	<path class="st0" d="M59.9,70c-6.1,0,0.3,0,0.3,0C60.1,70,60,70,59.9,70z"/>
	<path class="st0" d="M149,87.5l-28.2-0.1c-1,0-1.9,0.5-2.5,1.3c-2,2.8-5.6,7.4-8.4,7.4H89.3v0H65.1c0-0.2,0-15.7,0-22.7
		c0-1.9-1.5-3.4-3.4-3.4H13.2c-1.9,0-3.4,1.5-3.4,3.4c0,11.9,0-0.2,0,14H7.9c-3,0-3.9,0.9-3.9,3.9c0,3.8,0,7.6,0,11.4
		c0,4.5,1.2,8.8,3.5,12.4c5.5,8.6,13.4,13,23.7,12.9c19.4,0,38.7,0,58.1,0v0c8.4,0,16.7,0,25.1,0c1.9,0,3.9-0.1,5.8-0.3
		c18.1-2.2,32.3-17.2,33.1-36C153.5,88.3,152.5,87.5,149,87.5z M15.7,76h43.4v20.2c-4.1,0-8,0-11.9,0c-0.5,0-1.2-0.5-1.5-0.9
		c-1.4-1.9-2.7-3.9-3.9-5.9c-0.9-1.4-2-1.9-3.6-1.9c-6.8,0-13.6,0-20.3,0h-2V76z M120.2,122c-1.7,0.2-3.4,0.4-5.1,0.4
		c-8.8,0-17.5,0-26.3,0v0c-19.4,0-38.8,0-58.2,0c-5.5,0-10.3-1.7-14.6-5.7h72.8v0h44.8C129.4,119.6,125,121.3,120.2,122z M140.7,110
		c-0.3,0.4-0.9,0.5-1.3,0.7c-0.3,0.1-0.7,0-1.1,0c-16.3,0-32.6,0-48.9,0v0c-25.2,0-50.3,0-75.5,0c-1.7,0-2.6-0.5-2.9-2.1
		c-0.4-2.2-0.9-4.4-1.1-6.6c-0.2-2.8-0.1-5.7-0.1-8.8h6.5c6.5,0,13.1,0,19.6,0.1c0.7,0,1.7,0.5,2.1,1.1c1.3,1.7,2.5,3.4,3.5,5.3
		c1,1.7,2.4,2.3,4.3,2.3c14.3,0,28.6-0.1,43-0.1v0c4.9,0,9.7,0,14.6,0c9.4,0,9.6,0,12.6-2.3c2.3-1.7,3.5-3.6,5.7-5.6
		c0.5-0.4,1.2-0.8,1.9-0.8c7.6-0.1,15.1,0,22.7,0c0.3,0,0.6,0.1,1,0.1C146.8,99.7,144.5,105.2,140.7,110z"/>
</g>
</svg>
