<?xml version="1.0" encoding="utf-8"?>
<!-- Generator: Adobe Illustrator 25.4.1, SVG Export Plug-In . SVG Version: 6.00 Build 0)  -->
<svg version="1.1" id="Слой_1" xmlns="http://www.w3.org/2000/svg" xmlns:xlink="http://www.w3.org/1999/xlink" x="0px" y="0px"
	 viewBox="0 0 158.6 163.1" style="enable-background:new 0 0 158.6 163.1;" xml:space="preserve">
<style type="text/css">
	.st0{fill:#1688AE;}
	.st1{fill:#1688AE;stroke:#1688AE;stroke-width:2;stroke-miterlimit:10;}
</style>
<path class="st0" d="M70.2,71.4c0-2.6-0.1-5.1,0-7.7c0-0.1,0-0.2,0-0.4c0.1-1.8,1.7-3.2,3.5-3.1c1.8,0.1,3.2,1.7,3.1,3.5
	c0,6.4,0,12.8,0,19.2c0.1,1.2-0.5,2.3-1.5,3c-1,0.7-2.2,0.8-3.2,0.2c-1.2-0.6-1.9-1.9-1.9-3.2c0-3.2,0-6.4,0-9.6L70.2,71.4z"/>
<path class="st0" d="M53.9,63.8c0-0.2,0-0.3,0-0.5c0.1-1.8,1.7-3.2,3.5-3.1s3.2,1.7,3.1,3.5c0,6.3,0,12.7,0,19c0,0.2,0,0.5,0,0.7
	c-0.2,1.8-1.9,3.1-3.7,2.9s-3.1-1.9-2.9-3.7c0-3.1,0-6.3,0-9.4S53.9,67,53.9,63.8z"/>
<path class="st0" d="M93.2,83c0,0.1,0,0.2,0,0.4c-0.1,1.8-1.6,3.2-3.4,3.1s-3.2-1.6-3.1-3.4c0-6.5,0-13,0-19.5c0-0.1,0-0.2,0-0.3
	c0.1-1.8,1.5-3.2,3.3-3.1c0.1,0,0.1,0,0.2,0c1.8,0.1,3.2,1.7,3,3.5v9.6C93.3,76.5,93.3,79.7,93.2,83z"/>
<path class="st0" d="M37.6,63.7c0-0.2,0-0.3,0-0.5c0.1-1.8,1.7-3.2,3.5-3.1s3.2,1.7,3.1,3.5c0,6.4,0,12.8,0,19.2c0,0,0,0.1,0,0.1
	c0,1.8-1.4,3.4-3.2,3.4c-0.1,0-0.1,0-0.2,0c-1.8-0.1-3.3-1.7-3.2-3.5c0-3.2,0-6.4,0-9.7V63.7z"/>
<path class="st0" d="M21,63.7c0-0.2,0-0.3,0-0.5c0.1-1.8,1.7-3.2,3.5-3.1s3.2,1.7,3.1,3.5c0,6.4,0,12.8,0,19.2c0,0,0,0.1,0,0.1
	c0,1.8-1.4,3.4-3.2,3.4c-0.1,0-0.1,0-0.2,0c-1.8-0.1-3.3-1.7-3.2-3.5c0-3.2,0-6.4,0-9.7V63.7z"/>
<path class="st0" d="M4.8,52v51.8c0,3.7,0.9,4.6,4.6,4.6c0.1,0,0.2,0,0.3,0l0,0.7c0,1.1,0,2.1,0,3.2c0,2.3,1.2,3.5,3.5,3.5
	c0.1,0,0.2,0,0.4,0c2.4-0.1,4-0.1,5.5,2.6c1.5,2.8,4.3,4.6,7.6,4.8c0.3,0,0.5,0,0.8,0c3.3,0,6.6-1.6,8.6-4.3
	c0.1-0.1,0.1-0.1,0.2-0.2c2.6,3.4,6,4.8,10.1,4.3c4.2-0.6,7.1-3,8.7-7.3c3.2,0.7,5.2-1.5,6.9-3.4c0.6-0.7,1.3-1.3,1.9-1.9
	c1-0.9,2-1.9,2.8-2.9c1.1-1.4,2.4-1.9,4.4-1.6l0,1.4c0,1.6,0,3.2,0,4.8c0,2.4,1.2,3.6,3.6,3.6c1.1,0,2.2,0,3.3,0l0.8,0
	c1.5,4.1,4.8,6.8,8.9,7.3c3.8,0.5,7.6-1.2,10-4.3c1.5,1.9,3.2,3.2,5.3,3.9c5.3,1.7,11-1,13.1-6.2c0.3-0.7,0.4-0.8,1.1-0.8
	c2.1,0.1,4.3,0,6.4,0c0.7,0,1.3,0,2,0c2,5,5.5,7.4,10.4,7.3c4.7-0.1,8-2.6,9.9-7.3l1,0c1.1,0,2.3,0,3.4,0c2.2,0,3.4-1.3,3.5-3.4
	c0-7.7,0-14.6,0-21.7c0-1-0.4-2-0.8-2.7c-1.4-2.4-2.7-4.8-4.1-7.2c-1.6-2.8-3.2-5.6-4.8-8.4c-0.4-0.7-1.6-2.9-4.4-2.4
	c-1.4,0.3-2.1-0.2-2.8-1.8c-0.6-1.4-1.2-2.7-1.9-4c-0.3-0.7-0.7-1.3-1-2c-0.7-1.5-1.8-2.2-3.5-2.2c0,0,0,0,0,0c-3.7,0-7.5,0-11.2,0
	l-4.9,0c-2.8,0-3.9,1.1-3.9,3.9c0,6.3,0,12.6,0,18.9l0,9h-0.9l0-40.1c0-3-1.1-4.1-4.1-4.1H8.9C5.8,47.8,4.8,48.9,4.8,52z
	 M31.8,112.5c0,2.2-1.8,4.1-4,4.2c-1,0-2-0.4-2.8-1.2c-0.8-0.8-1.3-1.8-1.3-2.9c0-2.2,1.9-4.1,4.1-4.2h0c0,0,0.1,0,0.1,0
	c1,0,2,0.4,2.8,1.2C31.3,110.4,31.8,111.4,31.8,112.5z M71.1,98.7v0.8c-0.2,0-0.3,0-0.5,0c-0.9,0-1.7,0-2.5,0c-0.2,0-0.4,0-0.6,0
	c-1.5,0-2.7,0.6-3.9,1.8c-1.9,2-3.9,4-5.8,5.9l-1.6,1.6c-0.5,0.5-0.8,0.7-1,0.6c-0.1,0-0.3-0.2-0.6-0.9c-2.1-5-7.6-7.7-12.8-6.2
	c-2.3,0.7-4.1,2-5.7,4c-2.2-2.9-5.2-4.4-9-4.4c-0.1,0-0.1,0-0.2,0c-3.4,0-6.8,0-10.2,0c-1.5,0-2.9,0-4.4,0h-1.1v-3.2H71.1z
	 M49,112.4c0.1,2.1-1.7,4.1-4,4.3c-1,0.1-2-0.3-2.8-1c-0.9-0.8-1.4-1.8-1.5-2.9c-0.1-2.1,1.7-4.1,4-4.2c0.1,0,0.1,0,0.2,0
	c0.9,0,1.8,0.4,2.6,1C48.4,110.2,48.9,111.3,49,112.4z M85,112.5c0-2.2,1.9-4.1,4.1-4.1c1,0,2.1,0.5,2.9,1.2
	c0.8,0.8,1.2,1.8,1.2,2.9c0,2.2-1.9,4.1-4.1,4.1c0,0,0,0,0,0c-1,0-2.1-0.5-2.9-1.3S85,113.6,85,112.5z M106.3,116.6
	C106.3,116.6,106.3,116.6,106.3,116.6c-1,0-2.1-0.4-2.9-1.2c-0.8-0.8-1.3-1.8-1.3-2.9c0-2.2,1.9-4.1,4.1-4.1c0,0,0,0,0,0
	c1,0,2,0.4,2.8,1.2c0.8,0.8,1.3,1.8,1.3,2.9C110.4,114.7,108.5,116.6,106.3,116.6z M139.9,112.5c0,2.1-1.9,4.1-4.1,4.1
	c-1,0-2-0.4-2.8-1.2c-0.8-0.8-1.3-1.8-1.3-2.9c0-2.2,1.9-4.1,4.1-4.1c1,0,2,0.4,2.8,1.2C139.5,110.4,139.9,111.5,139.9,112.5z
	 M86.4,98.6c6.4,0,12.8,0,19.2,0c0.7,0,1.5-0.1,2.2-0.1c1.7-0.1,3.2-0.3,4.4,0.3c1.4,0.6,2.5,1.9,3.6,3.2c0.5,0.6,1,1.2,1.6,1.7
	c0.3,0.3,0.4,0.5,0.4,0.5c0,1.4,0,2.9,0,4.4l0,0.7h-1.3c-1.5-4.2-4.5-6.7-8.7-7.3c-4-0.5-7.4,0.9-10,4.2c-2.5-3.2-6.3-4.8-10.2-4.2
	c-4,0.6-7.2,3.3-8.6,7.2h-1.2V98.6H86.4z M122.4,99.3c-0.9-0.8-1.7-1.7-2.6-2.5c-0.7-0.7-1.4-1.4-2.1-2.1c-0.6-0.5-0.8-1-0.8-1.8
	c0-3.7,0-7.3,0-11l0-4.7c0-0.2,0-0.5,0-0.8l8,0c0.1,0,0.2,0,0.2,0v12.9c0,2.8,0.6,3.6,3.3,4.5l3.5,1.2c4.9,1.6,9.9,3.3,14.8,5
	c0.2,0.1,0.4,0.2,0.5,0.3c0.1,2.5,0.1,5.1,0,7.6l0,1.3H146c-1.9-4.8-5.3-7.3-10.1-7.3c-4.8,0-8.3,2.4-10.2,7.3h-1.4
	c0-0.4,0-0.7,0-1.1c0-1.4,0-2.8,0-4.1C124.5,102.1,123.9,100.7,122.4,99.3z M131.7,87.8c0-3.1,0-6.2,0-9.4l0-1.9c0.5,0,0.9,0,1.3,0
	c1.7,0,3.3,0,5,0c0,0,0.1,0,0.1,0c0.6,0,0.8,0.2,1.1,0.7c2.2,3.9,4.7,8.4,7.3,12.8c0.6,1,0.8,2,0.8,3.3l-2.1-0.7
	c-4.5-1.5-8.9-3-13.3-4.5C131.8,88,131.8,87.8,131.7,87.8z M117,69.8v-3.2l1.8,0c3.3,0,6.6,0,9.9,0c0,0,0.2,0.1,0.2,0.2
	c0.5,1,1,1.9,1.5,3l0,0H117z M103,54.4V92H11.3V54.4H103z"/>
</svg>
