<?xml version="1.0" encoding="utf-8"?>
<!-- Generator: Adobe Illustrator 25.4.1, SVG Export Plug-In . SVG Version: 6.00 Build 0)  -->
<svg version="1.1" id="Слой_1" xmlns="http://www.w3.org/2000/svg" xmlns:xlink="http://www.w3.org/1999/xlink" x="0px" y="0px"
	 viewBox="0 0 158.6 163.1" style="enable-background:new 0 0 158.6 163.1;" xml:space="preserve">
<style type="text/css">
	.st0{fill:#1688AE;}
	.st1{fill:#1688AE;stroke:#1688AE;stroke-width:2;stroke-miterlimit:10;}
</style>
<path class="st0" d="M74.1,72.4c0,3.2,0,6.4,0,9.6c0.1,1.3-0.7,2.6-1.9,3.2c-1,0.6-2.3,0.5-3.2-0.2c-1-0.7-1.6-1.8-1.5-3
	c0-6.4,0-12.8,0-19.2c-0.1-1.8,1.3-3.4,3.1-3.5c1.8-0.1,3.4,1.3,3.5,3.1c0,0.1,0,0.2,0,0.4c0.1,2.6,0,5.1,0,7.7L74.1,72.4z"/>
<path class="st0" d="M90.5,72.4c0,3.2,0,6.3,0,9.4c0.2,1.8-1.1,3.5-2.9,3.7s-3.5-1.1-3.7-2.9c0-0.2,0-0.5,0-0.7c0-6.3,0-12.7,0-19
	c-0.1-1.8,1.3-3.4,3.1-3.5s3.4,1.3,3.5,3.1c0,0.2,0,0.3,0,0.5C90.5,66.1,90.5,69.2,90.5,72.4z"/>
<path class="st0" d="M51.1,72.3v-9.6c-0.1-1.8,1.2-3.4,3-3.5c0.1,0,0.1,0,0.2,0c1.8-0.1,3.3,1.3,3.3,3.1c0,0.1,0,0.2,0,0.3
	c0,6.5,0,13,0,19.5c0.1,1.8-1.3,3.3-3.1,3.4c-1.8,0.1-3.3-1.3-3.4-3.1c0-0.1,0-0.2,0-0.4C51.1,78.9,51.1,75.6,51.1,72.3z"/>
<path class="st0" d="M106.8,72.3c0,3.2,0,6.4,0,9.7c0.1,1.8-1.3,3.4-3.2,3.5c-0.1,0-0.1,0-0.2,0c-1.8,0-3.3-1.6-3.2-3.4
	c0,0,0-0.1,0-0.1c0-6.4,0-12.8,0-19.2c-0.1-1.8,1.3-3.4,3.1-3.5s3.4,1.3,3.5,3.1c0,0.2,0,0.3,0,0.5V72.3z"/>
<path class="st0" d="M134.7,88.7c-0.1-1.8-1.6-3.2-3.4-3.1c-1.7,0.1-3,1.4-3.1,3.1c0,0.6,0,1.1,0,1.7h-3.3V51.8c0-2.8-1.2-4-4.1-4
	H37.1c-2.7,0-4,1.3-4,4v38.5h-3.2v-1.5c0-0.6-0.2-1.2-0.5-1.8l0,0c-0.1-0.2-0.3-0.4-0.5-0.6c-0.6-0.6-1.5-1-2.3-1
	c-0.5,0-0.9,0.1-1.4,0.3c-1.2,0.5-1.9,1.7-2,3v9.9c0,0.4,0.1,0.7,0.2,1.1l0,0c0.6,1.7,2.5,2.6,4.2,2c1.3-0.5,2.2-1.7,2.2-3.1v-1.6
	c0.4,0,0.7-0.1,1-0.1c9.5,0,19,0,28.5,0c0.6-0.1,1.2,0.4,1.3,1c1.1,3.1,2.3,6.2,3.5,9.3c0.8,2.2,1.8,2.8,4,2.8c7.2,0,14.4,0,21.5,0
	c2.2,0,3.2-0.7,4-2.8c1.2-3.1,2.4-6.2,3.5-9.3c0.2-0.7,0.8-1.1,1.5-1c9.4,0,18.8,0,28.2,0c0.4,0,0.8,0,1.2,0c0,0.7,0,1.2,0,1.7
	c0.1,1.8,1.7,3.2,3.5,3c1.7-0.1,3-1.5,3-3.1C134.7,95.3,134.7,92,134.7,88.7z M88.3,103.1c-0.1,0.2-0.5,0.4-0.8,0.4
	c-5.7,0-11.4,0-17.1,0c-0.4,0-0.7-0.3-0.8-0.6c-0.8-1.9-1.4-3.8-2.2-5.8h23.2C89.8,99.1,89.1,101.1,88.3,103.1z M118.2,90.3H39.8
	V54.5h78.5V90.3z"/>
<path class="st0" d="M120.6,100.9L120.6,100.9c-2.7,0-5.3,1.1-7.2,3c-1.9-1.9-4.5-3-7.2-3l0,0c-5.6,0-10.1,4.5-10.1,10.1l0,0
	c0,5.6,4.5,10.1,10.1,10.1l0,0c2.7,0,5.3-1.1,7.2-3c1.9,1.9,4.5,3,7.2,3l0,0c5.6,0,10.1-4.5,10.1-10.1l0,0
	C130.7,105.4,126.2,100.9,120.6,100.9z M106.3,114.3L106.3,114.3c-1.8,0-3.3-1.5-3.3-3.3c0-1.8,1.5-3.3,3.3-3.3l0,0
	c1.8,0,3.3,1.5,3.3,3.3C109.5,112.8,108.1,114.3,106.3,114.3L106.3,114.3z M120.6,114.3L120.6,114.3c-1.8,0-3.3-1.5-3.3-3.3
	c0-1.8,1.5-3.3,3.3-3.3l0,0c1.8,0,3.3,1.5,3.3,3.3C123.9,112.8,122.4,114.3,120.6,114.3L120.6,114.3z"/>
<path class="st0" d="M52.2,100.9L52.2,100.9c-2.7,0-5.3,1.1-7.2,3c-1.9-1.9-4.5-3-7.2-3l0,0c-5.6,0-10.1,4.5-10.1,10.1l0,0
	c0,5.6,4.5,10.1,10.1,10.1l0,0c2.7,0,5.3-1.1,7.2-3c1.9,1.9,4.5,3,7.2,3l0,0c5.6,0,10.1-4.5,10.1-10.1l0,0
	C62.3,105.4,57.8,100.9,52.2,100.9z M37.9,114.3L37.9,114.3c-1.8,0-3.3-1.5-3.3-3.3c0-1.8,1.5-3.3,3.3-3.3l0,0
	c1.8,0,3.3,1.5,3.3,3.3C41.1,112.8,39.7,114.3,37.9,114.3z M52.2,114.3L52.2,114.3c-1.8,0-3.3-1.5-3.3-3.3c0-1.8,1.5-3.3,3.3-3.3
	l0,0c1.8,0,3.3,1.5,3.3,3.3C55.5,112.8,54,114.3,52.2,114.3z"/>
</svg>
