<?xml version="1.0" encoding="utf-8"?>
<!-- Generator: Adobe Illustrator 25.4.1, SVG Export Plug-In . SVG Version: 6.00 Build 0)  -->
<svg version="1.1" id="Слой_1" xmlns="http://www.w3.org/2000/svg" xmlns:xlink="http://www.w3.org/1999/xlink" x="0px" y="0px"
	 viewBox="0 0 158.6 163.1" style="enable-background:new 0 0 158.6 163.1;" xml:space="preserve">
<style type="text/css">
	.st0{fill:#1688AE;}
	.st1{fill:#1688AE;stroke:#1688AE;stroke-width:2;stroke-miterlimit:10;}
</style>
<path class="st0" d="M148.6,115.5c0.3,1.4-0.5,2.9-1.9,3.4c-0.7,0.2-1.4,0.3-2.3,0.2c-3.3-0.3-6.1-1.6-8.8-3.4
	c-1.8-1.1-3.7-1.8-5.8-2c-2.8-0.1-5.2,0.8-7.4,2.3c-2.3,1.5-4.9,2.7-7.7,3c-4.1,0.5-7.9-0.4-11.3-2.7c-3.1-2.2-6.5-3.2-10.2-2.1
	c-1.5,0.4-3,1.3-4.3,2.1c-6.3,3.9-12.6,4-18.8-0.1c-4.4-2.9-10-2.9-14.4,0c-6.2,4.1-12.6,4-18.9,0c-4.7-3.1-9.3-3.3-14-0.2
	c-2.9,1.9-6,3.1-9.5,3.2c-1.2,0-2.2-0.4-2.8-1.6c-0.5-1-0.4-2,0.3-2.8c0.6-0.5,1.4-0.8,2.2-1c1.4-0.3,2.8-0.5,4.4-0.7
	c-2.2-3.3-4.3-6.2-6.2-9.2c-0.6-0.9-0.9-2-1-3.1c-0.1-3.4-0.1-6.8,0-10.1c0-2.1,1-3.1,3.2-3.2c0.8,0,1.6,0,2.4,0c0.8,0,1.5,0,2.5,0
	c0-0.5,0-1,0-1.5c0-4.6,0-9.2,0-13.8c0-0.6-0.3-1.4-0.7-1.9c-1.3-1.7-0.5-4,1.6-4.4c0.5-0.1,1.1-0.1,1.6-0.1c5.8,0,11.7,0,17.7,0
	c0.1-1.2,0.3-2-0.6-3.5c-2.2-3.5-2-7.9,0.5-11.2c0.5-0.6,0.1-1.7-0.4-2.4c-0.6-0.9-0.9-1.7-0.5-2.8c0.4-1,1.1-1.6,2.2-1.8
	c0.4-0.1,0.8-0.1,1.2-0.1c13.8,0,27.6,0,41.4,0c1.2,0,2.3,0.1,3,1.1c0.8,1.1,0.7,2.4-0.2,3.5c-0.3,0.3-0.6,0.7-0.6,1.1
	c0,5.2,0,10.4,0,15.9c0.5,0,1,0,1.5,0c5.7,0,11.3,0,17,0c2.2,0,4,2,2.9,3.5c-1.6,2.3-1,4.8-1.1,7.2c-0.1,3.5,0,7.1,0,10.8
	c1.4,0,2.6,0,3.9,0c0.3,0,0.7-0.4,1-0.6c1.4-1.4,2.7-2.9,4.2-4.2c0.7-0.6,1.7-1.1,2.6-1.1c9.7-0.1,19.4,0,29-0.1c0,0,0,0,0,0
	c1.9,0,3.1,2.1,2.2,3.8c-2.5,5-9.3,16-13.3,22.6c-0.2,0.4-0.4,0.7-0.5,0.9c2.1,1.2,4.1,2.5,6.2,3.4c1.6,0.7,3.3,1.3,5.1,1.6
	C146.4,113.8,148.2,114,148.6,115.5z M140.9,86.8c-0.7,0-1.1,0-1.6,0c-5.4,0-10.7,0-16.1,0c-2,0-4.3-0.5-6,0.2
	c-1.7,0.7-2.9,2.6-4.2,4.1c-1.1,1.3-2.3,1.7-4,1.7c-30.5,0-61,0-91.5,0c-0.6,0-1.1,0-1.7,0c0,2.1,0,4.1,0,6.1c0.6,0,1.2,0,1.7,0
	c20.5,0,41,0,61.4,0c17.7,0,35.4,0,53.1,0c1.1,0,1.8-0.3,2.4-1.3c1.9-3.2,3.9-6.4,5.8-9.6C140.4,87.8,140.6,87.4,140.9,86.8z
	 M22,110c0.2,0,0.3,0,0.4,0c6-2.7,11.6-2.1,17,1.5c4.6,3.1,9.1,3,13.7-0.1c6.4-4.2,12.9-4.2,19.3,0c4.7,3.1,9.3,3.1,14,0
	c6.4-4.2,12.8-4.1,19.3-0.1c1.5,1,3.3,1.8,5,2.2c3.3,0.8,6.3-0.3,9-2.2c2.2-1.5,4.6-2.6,7.3-2.9c0.3,0,0.6-0.1,0.7-0.3
	c0.8-1.2,1.6-2.5,2.4-3.8c-37.4,0-74.6,0-111.9,0C19.6,106.4,20.8,108.3,22,110z M44.1,49.7c0,5.4,0,10.7,0,16c2.7,0,5.3,0,8,0
	c0-2.6,0-5.1,0-7.6c0-1.3,0.5-2.3,1.7-2.8c1.8-0.7,3.7,0.5,3.7,2.6c0.1,2.6,0,5.2,0,7.8c2.8,0,5.4,0,8.1,0c0-0.6,0-1.1,0-1.5
	c0-2.1,0-4.2,0-6.3c0-1.7,1.2-2.8,2.7-2.8c1.5,0,2.6,1.1,2.7,2.8c0,1.3,0,2.5,0,3.8c0,1.4,0,2.8,0,4.1c2.8,0,5.4,0,8,0
	c0-5.4,0-10.7,0-16.1C67.4,49.7,55.8,49.7,44.1,49.7z M31.9,87.4c0-0.6,0-1,0-1.4c0-2.2,0-4.3,0-6.5c0.1-2.1,2-3.4,3.8-2.6
	c1.2,0.5,1.6,1.5,1.6,2.8c0,2.5,0,5.1,0,7.6c2.8,0,5.4,0,8.1,0c0-2.6,0-5.1,0-7.7c0-1.3,0.5-2.3,1.7-2.8c1.9-0.7,3.6,0.5,3.7,2.6
	c0.1,2.6,0,5.2,0,7.8c2.8,0,5.4,0,8,0c0-5.4,0-10.7,0-16c-11.7,0-23.3,0-34.9,0c0,5.4,0,10.7,0,16.1C26.6,87.4,29.1,87.4,31.9,87.4z
	 M85.9,87.3c0-0.5,0-1,0-1.4c0-2.2,0-4.4,0-6.6c0-1.6,1.2-2.7,2.7-2.7c1.5,0,2.6,1.1,2.7,2.6c0,0.6,0,1.2,0,1.8c0,2.1,0,4.2,0,6.3
	c2.8,0,5.4,0,8,0c0-5.4,0-10.7,0-16c-11.7,0-23.3,0-34.9,0c0,5.4,0,10.7,0,16c2.7,0,5.3,0,8,0c0-2.7,0-5.2,0-7.8
	c0-1.9,1.4-3.1,3.1-2.8c1.4,0.3,2.2,1.3,2.3,2.9c0,2.6,0,5.1,0,7.7C80.5,87.3,83.1,87.3,85.9,87.3z"/>
</svg>
