<?xml version="1.0" encoding="utf-8"?>
<!-- Generator: Adobe Illustrator 25.4.1, SVG Export Plug-In . SVG Version: 6.00 Build 0)  -->
<svg version="1.1" id="Слой_1" xmlns="http://www.w3.org/2000/svg" xmlns:xlink="http://www.w3.org/1999/xlink" x="0px" y="0px"
	 viewBox="0 0 158.6 163.1" style="enable-background:new 0 0 158.6 163.1;" xml:space="preserve">
<style type="text/css">
	.st0{fill:#1688AE;}
	.st1{fill:#1688AE;stroke:#1688AE;stroke-width:2;stroke-miterlimit:10;}
</style>
<path class="st1" d="M69.2,46.6c3.3,0.9,6.6,1.8,9.8,2.6c0.3,0.1,0.8-0.2,1.1-0.5c1.6-1.8,3-3.7,4.8-5.3c6.8-6.2,14.8-9.1,24-8.6
	c1.3,0.1,1.9,0.7,2,2c0.4,9.4-2.7,17.5-9,24.4c-1.5,1.6-3.3,2.9-5,4.3c-0.5,0.4-0.7,0.8-0.5,1.5c0.5,1.5,0.9,3.1,1.3,4.7
	c0.3,1.2-0.2,2.1-1.2,2.4c-1,0.3-1.9-0.3-2.2-1.4c-0.4-1.3-0.7-2.5-1.1-4c-4,3.4-7.9,6.8-11.9,10.1c0.2,0.4,0.4,0.8,0.6,1.1
	c2.9,5,5.8,10.1,8.6,15.1c0.2,0.4,0.5,0.8,0.6,1.2c0.4,0.9,0.1,1.9-0.7,2.3c-0.9,0.4-1.7,0.3-2.3-0.5c-0.2-0.3-0.4-0.6-0.5-0.8
	c-2.8-4.9-5.6-9.9-8.5-14.8c-0.2-0.3-0.4-0.7-0.7-1.2c-0.6,0.5-1.2,0.9-1.7,1.4c-6,5.1-12,10.3-18.1,15.4c-0.7,0.6-0.9,1.1-0.8,2
	c0.5,4.4,0.9,8.8,1.5,13.3c0.1,1.1-0.1,1.9-1.1,2.5c-1,0.6-1.9,1.3-2.8,1.9c-1.6,1.1-2.5,0.8-3.3-0.9c-1.7-3.8-3.4-7.6-5.1-11.4
	c-0.4-0.9-1-1.7-1.7-2.4c-2.4-2.9-5.4-4.9-8.9-6.2c-2.6-1-5.2-2.3-7.8-3.4c-1.6-0.7-1.9-1.8-1-3.2c0.6-0.9,1.3-1.8,1.9-2.7
	c0.6-0.9,1.3-1.3,2.4-1.1c4.6,0.5,9.1,1,13.7,1.4c0.4,0,1-0.1,1.3-0.3c5.8-6.7,11.5-13.4,17.3-20.2c-0.4-0.2-0.7-0.4-1-0.6
	C53.3,60.7,43.2,55,33.2,49.2c-1.8-1-2-1.7-1-3.5c1.2-2.1,2.3-4.2,3.5-6.2c0.7-1.2,1.2-1.4,2.6-1.1c4.6,1.2,9.2,2.4,13.8,3.7
	c0.7,0.2,1.2,0.2,1.7-0.4c0.4-0.4,0.8-0.8,1.3-1.2c0.9-0.8,1.9-0.9,2.6-0.1c0.7,0.7,0.6,1.7-0.1,2.6c-0.1,0.1-0.2,0.3-0.4,0.5
	c2.6,0.7,5,1.4,7.5,2c0.2,0,0.5-0.1,0.6-0.3c0.3-0.2,0.5-0.5,0.8-0.8c0.7-0.8,1.5-1.2,2.5-0.6C69.5,44.3,69.7,45.1,69.2,46.6z
	 M31.8,90.7c1.7,0.8,3.4,1.7,5.2,2.3c4.6,1.6,8.5,4.3,11.6,8c0.5,0.6,1,1.3,1.3,2c1.5,3.2,2.9,6.4,4.4,9.6c0.2,0.4,0.4,0.7,0.5,1
	c0.9-0.2,1-0.8,1-1.5c-0.5-4.5-0.9-8.9-1.4-13.4c-0.1-1.1,0.2-1.9,1-2.6c12.3-10.5,24.5-20.9,36.7-31.4c2.4-2.1,5-4,7.2-6.2
	c3.8-3.9,6.1-8.6,7.2-13.9c0.4-2.1,0.6-4.2,0.9-6.4c-4.7-0.1-8.8,0.9-12.7,2.6c-4.8,2.1-8.4,5.7-11.7,9.7
	C71.8,63.7,60.6,76.8,49.4,89.9c-0.9,1-1.7,1.4-3.1,1.2c-4.3-0.5-8.7-0.9-13-1.4C32.6,89.6,32,89.7,31.8,90.7z M76.9,52.3
	c-13-3.5-25.7-6.9-38.5-10.3c-0.9,1.6-1.7,3-2.6,4.5c10.4,5.9,20.6,11.8,31,17.7C70.1,60.3,73.4,56.4,76.9,52.3z"/>
<path class="st1" d="M112.9,100.3c-4.3,0-8.5,0-12.8,0c-1.7,0-2.3-0.6-2.3-2.3c0-6.7,0-13.5,0-20.2c0-1.6,0.6-2.3,2.3-2.3
	c8.5,0,17,0,25.5,0c1.6,0,2.2,0.6,2.2,2.3c0,6.7,0,13.5,0,20.2c0,1.7-0.6,2.2-2.3,2.2C121.4,100.3,117.2,100.3,112.9,100.3z
	 M111.1,79.2c-3.2,0-6.4,0-9.6,0c0,5.9,0,11.7,0,17.5c7.6,0,15.2,0,22.8,0c0-5.9,0-11.7,0-17.5c-3.2,0-6.4,0-9.6,0
	c-0.2,1.4,0.4,3.5-1.9,3.4C110.7,82.5,111.3,80.6,111.1,79.2z"/>
<path class="st1" d="M78.1,129.8c-4.2,0-8.5,0-12.7,0c-1.7,0-2.3-0.6-2.3-2.2c0-6.7,0-13.5,0-20.2c0-1.6,0.6-2.3,2.3-2.3
	c8.5,0,17,0,25.5,0c1.7,0,2.3,0.6,2.3,2.3c0,6.7,0,13.5,0,20.2c0,1.7-0.6,2.2-2.2,2.2C86.6,129.8,82.3,129.8,78.1,129.8z
	 M66.7,126.2c7.6,0,15.2,0,22.8,0c0-5.9,0-11.7,0-17.5c-3.2,0-6.4,0-9.6,0c-0.2,1.4,0.4,3.3-1.7,3.4c-2.3,0.1-1.7-2-1.9-3.4
	c-3.2,0-6.4,0-9.6,0C66.7,114.6,66.7,120.3,66.7,126.2z"/>
<path class="st1" d="M112.9,129.8c-4.2,0-8.4,0-12.6,0c-1.9,0-2.4-0.5-2.4-2.5c0-6.6,0-13.2,0-19.9c0-1.8,0.6-2.4,2.4-2.4
	c8.4,0,16.8,0,25.3,0c1.8,0,2.4,0.6,2.4,2.4c0,6.7,0,13.4,0,20.1c0,1.7-0.6,2.3-2.2,2.3C121.4,129.8,117.1,129.8,112.9,129.8z
	 M101.5,108.7c0,5.9,0,11.7,0,17.5c7.7,0,15.2,0,22.8,0c0-5.9,0-11.7,0-17.5c-3.2,0-6.4,0-9.6,0c-0.2,1.4,0.4,3.3-1.7,3.4
	c-2.4,0.1-1.8-2-2-3.4C107.8,108.7,104.7,108.7,101.5,108.7z"/>
<path class="st1" d="M72.7,77.2c-0.5-0.5-1.2-0.8-1.5-1.3c-0.5-0.8-0.1-1.5,0.5-2.1c1.9-1.7,3.8-3.3,5.7-5
	c4.2-3.6,8.3-7.2,12.5-10.8c0.6-0.6,1.3-1,2.2-0.6c1.3,0.6,1.4,2.1,0.2,3.1c-2.5,2.2-5,4.4-7.6,6.6c-3.5,3-6.9,6-10.4,9
	C73.9,76.5,73.4,76.7,72.7,77.2z"/>
<path class="st1" d="M56,91.4c-0.4,0.6-0.5,1.1-0.9,1.4C54.1,93.9,53,95,52,96c-0.9,0.9-1.9,0.9-2.6,0.2c-0.8-0.7-0.7-1.8,0.1-2.6
	c1.1-1.1,2.2-2.2,3.3-3.3c0.6-0.6,1.3-0.8,2-0.3C55.2,90.3,55.5,90.9,56,91.4z"/>
</svg>
