<?xml version="1.0" encoding="utf-8"?>
<!-- Generator: Adobe Illustrator 25.4.1, SVG Export Plug-In . SVG Version: 6.00 Build 0)  -->
<svg version="1.1" id="Слой_1" xmlns="http://www.w3.org/2000/svg" xmlns:xlink="http://www.w3.org/1999/xlink" x="0px" y="0px"
	 viewBox="0 0 158.6 163.1" style="enable-background:new 0 0 158.6 163.1;" xml:space="preserve">
<style type="text/css">
	.st0{fill:#1688AE;}
	.st1{fill:#1688AE;stroke:#1688AE;stroke-width:2;stroke-miterlimit:10;}
</style>
<path class="st0" d="M93.8,57.8c2.6,0,5.1,0,7.7,0c0-1.7,0-3.4,0-5.2c-2.6,0-5.1,0-7.7,0C93.8,54.3,93.8,56,93.8,57.8z"/>
<path class="st0" d="M133.4,89.6c0-1.7,0-3.3,0-5.1c-2.6,0-5.1,0-7.8,0c0,1.6,0,3.3,0,5.1C128.1,89.6,130.7,89.6,133.4,89.6z"/>
<path class="st0" d="M6.3,102.6c0,1.9,1,2.9,3,3c2.5,0,5,0,7.5,0c0,0.9,0.1,1.6,0.1,2.6h5.2c0.3,3.6,1.6,6.5,4.4,8.6
	c2.1,1.5,4.4,2.2,7,2c5.4-0.3,9.2-4.3,10-10.5h5.1c0-0.9,0.1-1.7,0.1-2.5h2.6v0H75c0,0.7,0.1,1.5,0.1,2.5h5.1
	c1.2,6.8,5.1,10.6,10.8,10.6s9.5-3.7,10.8-10.6h5c0.1-0.9,0.1-1.7,0.2-2.6h2.5v2.5h5.2c0.3,3.6,1.6,6.5,4.5,8.6
	c2.1,1.5,4.5,2.2,7.2,2c5.9-0.5,9.5-4.9,9.7-12.1c1.2,1.6,2.7,1.6,4.3,1.6c3.5,0,7.1,0,10.6,0c2.8,0,3.6-0.8,3.6-3.7
	c0-6.4,0-12.8,0-19.2c0-0.9-0.2-1.9-0.5-2.7c-1.8-4.9-3.6-9.7-5.5-14.6c-1.9-5-5.5-7.5-10.9-7.5c-6.5,0-13,0-19.5,0
	c-2.5,0-3.4,0.9-3.4,3.4c0,8.8,0,17.6,0,26.3v1.9h-2.6V48.4c0-3-0.8-3.8-3.8-3.8H51.4v0H12.8c-3,0-3.8,0.8-3.8,3.8v43.7
	c-2.3,1-2.7,1.4-2.7,3.9C6.3,98.2,6.3,100.4,6.3,102.6z M147.7,80.6c-0.2,0.1-0.3,0.2-0.4,0.1c-6.1-1.2-12.3-2.4-18.4-3.7
	c-0.3-0.1-0.7-0.6-0.7-0.9c-0.1-3.4,0-6.8,0-10.3c3.8,0,7.4-0.1,11,0c1.9,0.1,3.4,1.2,4.1,3C144.8,72.7,146.2,76.6,147.7,80.6z
	 M135.8,93.7c-0.9-0.6-2.1-1.3-3.2-1.3c-4.1-0.2-8.2-0.1-12.3-0.1V65.9h2.5v11.3c0,3.8,0.3,4.2,4,4.9c7.1,1.4,14.3,2.8,21.4,4.3
	c0.4,0.1,1,0.5,1,0.7c0.1,2.6,0,5.2,0,8h-5.2v5.3h5.1v2.5h-8c0.9-3-0.9-4.9-2.8-6.6C137.5,95.4,136.8,94.4,135.8,93.7z M127.6,97.7
	c4.5-0.2,4.5-0.2,6.6,1.9c1.9,1.9,2.3,3.5,1.5,6.1C134.3,101.4,132.6,99.7,127.6,97.7z M120.1,108.3c0-2.9,2.3-5.3,5.2-5.4
	c3,0,5.4,2.4,5.4,5.3c0,2.9-2.4,5.2-5.3,5.3C122.6,113.6,120.2,111.2,120.1,108.3z M123.3,97.8c-4.4,1.2-7.1,3.9-8.3,8.4
	C113.8,100.5,117.7,96.6,123.3,97.8z M105.7,97.8h5c-0.5,0.9-0.9,1.7-1.4,2.5h-2.2C106.6,99.4,106.2,98.6,105.7,97.8z M93.1,97.8
	c5.6-1.1,9.4,2.7,8.3,8.4C100.2,101.7,97.5,99.1,93.1,97.8z M85.7,108.3c0-2.9,2.3-5.3,5.2-5.3c3,0,5.4,2.4,5.4,5.3
	c0,2.9-2.4,5.2-5.3,5.3C88.1,113.6,85.7,111.2,85.7,108.3z M89,97.8c-4.5,1.2-7.2,4-8.5,8.4C79.4,100.4,83.2,96.7,89,97.8z
	 M47.6,97.8h3.8v0h24.8c-0.5,0.9-1,1.7-1.4,2.5H51.4v0H49C48.5,99.4,48.1,98.6,47.6,97.8z M35,97.8c5.7-1.1,9.4,2.8,8.3,8.4
	C42,101.7,39.3,99.1,35,97.8z M27.5,108.2c0-2.9,2.4-5.2,5.3-5.2c2.9,0,5.3,2.4,5.3,5.3c0,3-2.4,5.4-5.4,5.3
	C29.9,113.5,27.5,111.1,27.5,108.2z M30.8,97.8c-4.6,1.2-7.2,4-8.4,8.3C21.1,100.8,24.8,96.6,30.8,97.8z M14.4,92.2V50h37v0h55.4
	v42.2H51.4v0H14.4z M11.7,97.8h6.3c-0.5,0.9-0.9,1.6-1.3,2.4h-5V97.8z"/>
<path class="st0" d="M19.7,52.7c0,1.7,0,3.4,0,5.1c2.6,0,5.2,0,7.8,0c0-1.7,0-3.3,0-5.1C24.9,52.7,22.4,52.7,19.7,52.7z"/>
</svg>
