<?xml version="1.0" encoding="utf-8"?>
<!-- Generator: Adobe Illustrator 25.4.1, SVG Export Plug-In . SVG Version: 6.00 Build 0)  -->
<svg version="1.1" id="Слой_1" xmlns="http://www.w3.org/2000/svg" xmlns:xlink="http://www.w3.org/1999/xlink" x="0px" y="0px"
	 viewBox="0 0 158.6 163.1" style="enable-background:new 0 0 158.6 163.1;" xml:space="preserve">
<style type="text/css">
	.st0{fill:#1688AE;}
	.st1{fill:#1688AE;stroke:#1688AE;stroke-width:2;stroke-miterlimit:10;}
</style>
<path class="st0" d="M54.7,71.4c-1.9,0-3.5,1.6-3.5,3.5v13.3c0,1.9,1.6,3.5,3.5,3.5s3.5-1.6,3.5-3.5V74.9
	C58.2,73,56.6,71.4,54.7,71.4z"/>
<path class="st0" d="M71.2,71.4c-1.9,0-3.5,1.6-3.5,3.5v13.3c0,1.9,1.6,3.5,3.5,3.5s3.5-1.6,3.5-3.5V74.9
	C74.7,73,73.1,71.4,71.2,71.4z"/>
<path class="st0" d="M87.5,71.4c-1.9,0-3.5,1.6-3.5,3.5v13.3c0,1.9,1.6,3.5,3.5,3.5s3.5-1.6,3.5-3.5V74.9C91,73,89.4,71.4,87.5,71.4
	z"/>
<path class="st0" d="M103.9,71.4c-1.9,0-3.5,1.6-3.5,3.5v13.3c0,1.9,1.6,3.5,3.5,3.5s3.5-1.6,3.5-3.5V74.9
	C107.4,73,105.8,71.4,103.9,71.4z"/>
<path class="st0" d="M123.2,108.3L123.2,108.3c-2.7,0-5.3,1.1-7.2,3c-1.9-1.9-4.5-3-7.2-3l0,0c-5.6,0-10.1,4.5-10.1,10.1l0,0
	c0,5.6,4.5,10.1,10.1,10.1l0,0c2.7,0,5.3-1.1,7.2-3c1.9,1.9,4.5,3,7.2,3l0,0c5.6,0,10.1-4.5,10.1-10.1l0,0
	C133.2,112.8,128.7,108.3,123.2,108.3z M108.8,121.6L108.8,121.6c-1.8,0-3.3-1.5-3.3-3.3c0-1.8,1.5-3.3,3.3-3.3l0,0
	c1.8,0,3.3,1.5,3.3,3.3C112.1,120.2,110.6,121.6,108.8,121.6L108.8,121.6z M123.2,121.6L123.2,121.6c-1.8,0-3.3-1.5-3.3-3.3
	c0-1.8,1.5-3.3,3.3-3.3l0,0c1.8,0,3.3,1.5,3.3,3.3C126.4,120.2,125,121.6,123.2,121.6L123.2,121.6z"/>
<path class="st0" d="M48.6,108.3L48.6,108.3c-2.7,0-5.3,1.1-7.2,3c-1.9-1.9-4.5-3-7.2-3l0,0c-5.6,0-10.1,4.5-10.1,10.1l0,0
	c0,5.6,4.5,10.1,10.1,10.1l0,0c2.7,0,5.3-1.1,7.2-3c1.9,1.9,4.5,3,7.2,3l0,0c5.6,0,10.1-4.5,10.1-10.1l0,0
	C58.7,112.8,54.2,108.3,48.6,108.3z M34.3,121.6L34.3,121.6c-1.8,0-3.3-1.5-3.3-3.3c0-1.8,1.5-3.3,3.3-3.3l0,0
	c1.8,0,3.3,1.5,3.3,3.3C37.6,120.2,36.1,121.6,34.3,121.6z M48.6,121.6L48.6,121.6c-1.8,0-3.3-1.5-3.3-3.3c0-1.8,1.5-3.3,3.3-3.3
	l0,0c1.8,0,3.3,1.5,3.3,3.3C51.9,120.2,50.4,121.6,48.6,121.6z"/>
<rect x="34.9" y="108.3" class="st0" width="89.3" height="6.7"/>
<path class="st0" d="M100.6,101.9L100.6,101.9l-1.6,0c-0.1,0-0.1,0-0.2,0H100.6z"/>
<rect x="115.8" y="98.4" transform="matrix(0.866 0.5 -0.5 0.866 68.6124 -45.4502)" class="st0" width="6.7" height="13.9"/>
<rect x="35.6" y="98.4" transform="matrix(-0.866 0.5 -0.5 -0.866 125.4061 177.0122)" class="st0" width="6.7" height="13.9"/>
<g>
	<path class="st0" d="M64.5,112.1c0.8,2.2,1.8,2.9,4,2.9H90c2.2,0,3.2-0.7,4-2.8c0.5-1.3,1-2.6,1.5-4H63
		C63.5,109.6,64,110.8,64.5,112.1z"/>
	<path class="st0" d="M135,93.5c-0.1-1.8-1.7-3.2-3.5-3.1c-1.7,0.1-3,1.4-3.1,3.1v1.7h-3.3v-28h0.1V51.8c0-1.9-1.5-3.4-3.4-3.4
		c-1.8,0-3.2,1.4-3.4,3.1L99.2,34.3c-3.6-3.2-9-3.2-12.6,0l-9.9,8.8l-6.5-5.8c-3.6-3.2-9-3.2-12.6,0L40.3,52.6h-0.2v-0.8
		c0-1.9-1.5-3.4-3.4-3.4s-3.4,1.5-3.4,3.4v4.8v4.8v5.8v1v27h-3.2v-1.5c0-0.6-0.2-1.2-0.5-1.8c-0.1-0.2-0.3-0.4-0.5-0.6
		c-0.6-0.6-1.5-1-2.3-1c-0.5,0-0.9,0.1-1.3,0.3c-1.2,0.5-2,1.7-2,3v9.9c0,0.4,0.1,0.7,0.2,1.1c0.5,1.4,1.8,2.2,3.1,2.2
		c0.4,0,0.7-0.1,1.1-0.2c1.3-0.5,2.2-1.7,2.2-3.1v-1.6c0.4,0,0.7-0.1,1-0.1h28.5c0.2,0,0.4,0,0.5,0.1h38.6c0.1,0,0.1,0,0.2,0h29.4
		v1.7c0.1,1.8,1.7,3.2,3.5,3c1.7-0.1,3-1.5,3.1-3.1C135,100.1,135,96.8,135,93.5z M91.2,39.6c1-0.8,2.4-0.8,3.3,0l14.7,13H87.4
		L82,47.8L91.2,39.6z M62.2,42.5c0.9-0.8,2.4-0.8,3.3,0l11.3,10.1h-26L62.2,42.5z M118.5,95.1H40.1v-27h78.5V95.1z M118.5,61.4H40.2
		v-2.1h78.4V61.4z"/>
</g>
</svg>
